<svg width="26" height="26" viewBox="0 0 26 26" fill="none" xmlns="http://www.w3.org/2000/svg">
<path opacity="0.964" fill-rule="evenodd" clip-rule="evenodd" d="M11.8828 0C12.6276 0 13.3724 0 14.1172 0C18.6903 0.537992 22.1349 2.78929 24.4512 6.75391C25.3071 8.36763 25.8234 10.0773 26 11.8828C26 12.6276 26 13.3724 26 14.1172C25.462 18.6903 23.2107 22.1349 19.2461 24.4512C17.6324 25.3071 15.9227 25.8234 14.1172 26C13.3724 26 12.6276 26 11.8828 26C7.30971 25.462 3.86506 23.2107 1.54883 19.2461C0.692905 17.6324 0.176628 15.9227 0 14.1172C0 13.3724 0 12.6276 0 11.8828C0.537992 7.30971 2.78929 3.86506 6.75391 1.54883C8.36763 0.692905 10.0773 0.176628 11.8828 0ZM11.9336 1.57422C16.8643 1.36019 20.5798 3.35759 23.0801 7.56641C24.6482 10.6594 24.8513 13.8417 23.6895 17.1133C23.1967 18.3197 22.5365 19.4199 21.709 20.4141C20.8147 17.4888 18.9612 15.4321 16.1484 14.2441C17.8492 12.9528 18.6194 11.2347 18.459 9.08984C17.9805 6.39397 16.3978 4.79434 13.7109 4.29102C10.9992 4.10178 9.06105 5.22742 7.89648 7.66797C7.07129 10.0968 7.58753 12.1873 9.44531 13.9395C9.58075 14.041 9.71613 14.1426 9.85156 14.2441C7.02427 15.4204 5.17075 17.4771 4.29102 20.4141C1.83488 17.3935 1.03931 13.9742 1.9043 10.1562C3.16536 5.91602 5.91602 3.16536 10.1562 1.9043C10.7517 1.77134 11.3441 1.66131 11.9336 1.57422ZM12.3906 5.83984C14.1996 5.68207 15.5622 6.37604 16.4785 7.92188C17.3215 9.89005 16.9238 11.5574 15.2852 12.9238C13.659 13.9457 12.0678 13.8949 10.5117 12.7715C9.03886 11.3914 8.70878 9.77488 9.52148 7.92188C10.1724 6.8052 11.1288 6.11117 12.3906 5.83984ZM12.3906 15.2852C15.8151 15.2146 18.2779 16.7042 19.7793 19.7539C20.0777 20.4222 20.2385 21.1162 20.2617 21.8359C16.8707 24.4663 13.1298 25.101 9.03906 23.7402C7.89567 23.3042 6.84618 22.7118 5.89062 21.9629C5.77967 21.8996 5.71198 21.8065 5.6875 21.6836C6.24767 18.6083 8.0081 16.5686 10.9688 15.5645C11.4447 15.4448 11.9187 15.3517 12.3906 15.2852Z" fill="white"/>
</svg>
