<svg width="25" height="25" viewBox="0 0 25 25" fill="none" xmlns="http://www.w3.org/2000/svg">
<g clip-path="url(#clip0_27_73)">
<path opacity="0.979" fill-rule="evenodd" clip-rule="evenodd" d="M12.3291 -0.0244141C12.3942 -0.0244141 12.4593 -0.0244141 12.5244 -0.0244141C13.7909 0.722998 15.0604 1.47169 16.333 2.22168C12.8802 4.23417 9.42153 6.23613 5.95703 8.22754C4.63562 7.48955 3.3254 6.73271 2.02637 5.95703C5.46367 3.96191 8.89795 1.9681 12.3291 -0.0244141Z" fill="white"/>
<path opacity="0.981" fill-rule="evenodd" clip-rule="evenodd" d="M18.2373 3.39355C19.7861 4.2088 21.3161 5.06328 22.8271 5.95703C19.3805 7.9856 15.9218 9.9957 12.4512 11.9873C10.9417 11.1309 9.43613 10.2682 7.93457 9.39941C11.3799 7.4085 14.8142 5.40654 18.2373 3.39355Z" fill="white"/>
<path opacity="0.992" fill-rule="evenodd" clip-rule="evenodd" d="M13.4521 24.9756C13.4196 24.9756 13.3871 24.9756 13.3545 24.9756C13.3382 21.0692 13.3545 17.1629 13.4033 13.2568C16.7399 11.3363 20.0765 9.41567 23.4131 7.49512C23.4782 11.4014 23.4782 15.3076 23.4131 19.2139C20.0897 21.1357 16.7694 23.0563 13.4521 24.9756Z" fill="white"/>
<path opacity="0.988" fill-rule="evenodd" clip-rule="evenodd" d="M1.48926 7.54395C2.77619 8.25669 4.05386 8.98911 5.32227 9.74121C5.33071 10.7458 5.35513 11.7467 5.39551 12.7441C5.98482 13.0266 6.56265 13.3277 7.12891 13.6475C7.13706 12.703 7.16148 11.759 7.20215 10.8154C8.63443 11.6455 10.0667 12.4756 11.499 13.3057C11.5641 17.1793 11.5641 21.0531 11.499 24.9268C8.1586 23.0247 4.83016 21.1041 1.51367 19.165C1.48926 15.2914 1.48112 11.4177 1.48926 7.54395Z" fill="white"/>
</g>
<defs>
<clipPath id="clip0_27_73">
<rect width="25" height="25" fill="white"/>
</clipPath>
</defs>
</svg>
