<svg width="44" height="44" viewBox="0 0 44 44" fill="none" xmlns="http://www.w3.org/2000/svg">
<g clip-path="url(#clip0_8_31)">
<path d="M25.685 1.09999C25.4685 1.08968 25.2313 1.14124 25.0525 1.29249L22.66 3.32749L29.095 10.56H29.7L32.395 7.86499L31.625 7.03999H35.7225L30.4425 12.32H28.27C28.2494 12.2925 28.2356 12.2616 28.215 12.2375L20.075 3.07999C19.9135 2.89781 19.6866 2.78437 19.4425 2.77749C19.1847 2.76718 18.9785 2.88062 18.81 3.05249L16.61 5.27999H13.6125C13.42 5.27999 13.2172 5.35562 13.0625 5.47249L3.87752 12.5125C3.86377 12.5228 3.83627 12.5297 3.82252 12.54C3.80877 12.5537 3.80877 12.5537 3.79502 12.5675C3.77783 12.5847 3.75377 12.6053 3.74002 12.6225C3.70565 12.6637 3.68502 12.7153 3.65752 12.76C3.64721 12.7772 3.61283 12.7978 3.60252 12.815L0.0825221 19.855C-0.0859154 20.1953 -0.0206029 20.6044 0.247522 20.8725C0.415959 21.0409 0.653148 21.12 0.880022 21.12C1.01408 21.12 1.14127 21.0994 1.26502 21.0375L3.52002 19.91V37.84C3.52002 38.3281 3.91533 38.72 4.40002 38.72H30.8C30.9306 38.72 31.0475 38.6891 31.1575 38.6375C31.1885 38.6237 31.2125 38.5997 31.24 38.5825C31.3191 38.5344 31.4016 38.4862 31.46 38.4175C31.4703 38.4072 31.4772 38.4003 31.4875 38.39L38.5275 29.59C38.6513 29.4319 38.72 29.2394 38.72 29.04V23.1275L36.1625 25.795C35.9941 25.9703 35.7706 26.07 35.53 26.07C35.4991 26.07 35.451 26.0734 35.42 26.07C35.145 26.0391 34.901 25.8672 34.76 25.63L29.92 17.5175V36.96H5.28002V14.08H29.92L35.6675 23.7325L43.7525 15.5925C44.0378 15.3072 44.0722 14.8672 43.8625 14.52L38.5825 5.71999C38.5756 5.70624 38.5653 5.67874 38.555 5.66499C38.531 5.62374 38.5035 5.58937 38.4725 5.55499C38.4656 5.54812 38.4794 5.53437 38.4725 5.52749C38.4588 5.51374 38.4313 5.51374 38.4175 5.49999C38.3866 5.47249 38.3694 5.44156 38.335 5.41749C38.3281 5.41406 38.3144 5.42093 38.3075 5.41749C38.28 5.40031 38.2525 5.37624 38.225 5.36249C38.1975 5.34874 38.17 5.34531 38.1425 5.33499C38.0944 5.31781 38.0566 5.31781 38.005 5.30749C37.9878 5.30406 37.9672 5.28343 37.95 5.27999C37.9363 5.27656 37.9088 5.28343 37.895 5.27999C37.871 5.27999 37.8641 5.27999 37.84 5.27999H29.975L26.2625 1.37499C26.101 1.20312 25.9016 1.11031 25.685 1.09999ZM13.915 7.03999H14.905L9.70752 12.32H7.01252L13.915 7.03999ZM13.2 17.6C12.7153 17.6 12.32 17.9953 12.32 18.48C12.32 18.9647 12.7153 19.36 13.2 19.36H22C22.4847 19.36 22.88 18.9647 22.88 18.48C22.88 17.9953 22.4847 17.6 22 17.6H13.2Z" fill="white"/>
</g>
<defs>
<clipPath id="clip0_8_31">
<rect width="44" height="44" fill="white"/>
</clipPath>
</defs>
</svg>
